<?xml version="1.0" encoding="UTF-8" standalone="no"?>
<!-- Created with Inkscape (http://www.inkscape.org/) -->

<svg
   width="69.661499mm"
   height="12.8929mm"
   viewBox="0 0 69.6615 12.8929"
   version="1.1"
   id="svg5"
   inkscape:version="1.2.2 (b0a8486541, 2022-12-01)"
   sodipodi:docname="beks.svg"
   xml:space="preserve"
   xmlns:inkscape="http://www.inkscape.org/namespaces/inkscape"
   xmlns:sodipodi="http://sodipodi.sourceforge.net/DTD/sodipodi-0.dtd"
   xmlns="http://www.w3.org/2000/svg"
   xmlns:svg="http://www.w3.org/2000/svg"><sodipodi:namedview
     id="namedview7"
     pagecolor="#ffffff"
     bordercolor="#000000"
     borderopacity="0.25"
     inkscape:showpageshadow="2"
     inkscape:pageopacity="0.0"
     inkscape:pagecheckerboard="0"
     inkscape:deskcolor="#d1d1d1"
     inkscape:document-units="mm"
     showgrid="false"
     inkscape:zoom="2.3786088"
     inkscape:cx="206.00277"
     inkscape:cy="102.58097"
     inkscape:window-width="1916"
     inkscape:window-height="1157"
     inkscape:window-x="0"
     inkscape:window-y="41"
     inkscape:window-maximized="1"
     inkscape:current-layer="layer1"
     showguides="true"><sodipodi:guide
       position="61.678108,6.6976176"
       orientation="0,-1"
       id="guide1165"
       inkscape:locked="false" /></sodipodi:namedview><defs
     id="defs2" /><g
     inkscape:label="Calque 1"
     inkscape:groupmode="layer"
     id="layer1"
     transform="translate(-164.32377,-133.6515)"><g
       aria-label="BEKS"
       id="text236"
       style="font-weight:bold;font-size:18.4712px;line-height:1;font-family:'FONTSPRING DEMO - Organetto SemiExp UltraBold';-inkscape-font-specification:'FONTSPRING DEMO - Organetto SemiExp UltraBold,  Bold';opacity:1;fill:#FFFFFF;fill-opacity:1;stroke-width:27.7068;stroke-linejoin:round"><path
         d="m 177.83371,140.00559 c 1.40381,-0.29554 2.27196,-1.01591 2.27196,-2.78915 0,-2.41973 -1.81018,-3.50953 -5.06111,-3.50953 h -10.72079 v 12.78207 h 11.34881 c 3.10316,0 5.06111,-1.10827 5.06111,-3.528 0,-2.06877 -1.32993,-2.75221 -2.89998,-2.95539 z m -2.78915,-3.41717 c 0.84967,0 1.47769,0.27707 1.47769,1.0898 0,0.86815 -0.62802,1.01592 -1.45922,1.01592 h -7.13738 v -2.10572 z m -7.11891,4.8764 h 7.7654 c 0.9605,0 1.45922,0.35095 1.45922,1.07133 0,0.81273 -0.5726,1.07133 -1.47769,1.07133 h -7.74693 z"
         id="path1060"
         sodipodi:nodetypes="cssccsscsssccscssscc"
         style="fill:#FFFFFF;fill-opacity:1" /><path
         d="m 183.11157,133.70691 v 12.78207 h 15.45573 v -3.08469 h -11.85384 v -1.7917 h 10.30226 v -2.99234 h -10.30226 v -1.82865 h 11.85384 v -3.08469 z"
         id="path1062"
         sodipodi:nodetypes="ccccccccccccc"
         style="fill:#FFFFFF;fill-opacity:1" /><path
         d="m 208.13083,138.60178 h -3.93197 v -4.89487 h -3.74965 v 12.78207 h 3.74965 v -4.69168 h 3.9135 l 4.1116,4.69168 h 4.19296 l -5.33069,-6.24326 5.33069,-6.53881 h -4.17449 z"
         id="path1064"
         sodipodi:nodetypes="cccccccccccccc"
         style="fill:#FFFFFF;fill-opacity:1" /><path
         d="M 232.60312,133.6515 H 222.1161 c -3.58341,0 -4.89486,1.77323 -4.89486,3.89742 0,1.82865 1.01591,3.54647 4.24837,3.76813 l 7.82374,0.44331 c 0.97898,0.0739 1.40381,0.29553 1.40381,0.88661 0,0.60955 -0.48025,0.86815 -1.49616,0.86815 h -11.4566 l -0.0185,3.02928 h 11.4566 c 3.50952,0 4.80251,-1.82865 4.80251,-3.9159 0.0185,-1.84712 -0.9605,-3.67577 -4.32226,-3.89742 l -7.71292,-0.3879 c -1.10827,-0.0923 -1.44075,-0.36942 -1.44075,-0.86814 0,-0.55414 0.51719,-0.79426 1.42228,-0.79426 h 10.63479 z"
         id="path1066"
         sodipodi:nodetypes="cssccssccscccsscc"
         style="fill:#FFFFFF;fill-opacity:1" /></g></g></svg>
